<svg width="216" height="202" viewBox="0 0 216 202" fill="none" xmlns="http://www.w3.org/2000/svg">
<g clip-path="url(#clip0_105_2)">
<path d="M24.3225 202.732C24.1015 202.657 24.2031 202.583 24.3048 202.508C19.3195 197.808 20.9245 192.456 22.4286 187.008C24.1263 180.859 25.2254 174.546 27.2194 168.491C28.4037 164.895 29.9715 161.593 28.1844 157.521C30.7487 156.347 30.8837 154.531 31.0462 152.453C31.2072 150.394 32.013 148.38 32.7925 146.436C35.0252 148.879 37.0858 151.173 38.9341 153.612C39.6279 154.527 40.1721 155.769 40.2005 156.875C40.4467 166.462 38.6105 175.658 34.1637 184.346C33.7976 185.061 34.0469 186.058 34.0103 186.924C34.793 186.835 35.5747 186.738 36.3585 186.659C36.8704 186.607 37.3852 186.581 37.9193 186.831C38.7992 189.752 39.0015 191.942 34.9237 191.86C34.2725 191.846 33.602 192.687 32.9404 193.133C33.5475 193.818 34.0322 194.908 34.7851 195.112C36.836 195.666 39.0003 195.847 41.1196 196.176C37.1422 197.872 33.1603 199.558 29.192 201.273C28.5436 201.553 27.9553 201.958 27.6051 202.519C26.7956 202.732 25.7203 202.732 24.3225 202.732Z" fill="#7ABCF4"/>
<path d="M201.167 50.5013C203.583 55.2888 206.269 59.9749 208.334 64.8941C210.198 69.3343 211.386 74.0286 212.865 78.6128C216.174 88.8717 215.269 99.4359 215.079 109.895C214.987 114.991 214.439 120.344 212.644 125.089C209.372 133.735 205.488 142.249 200.97 150.376C197.178 157.196 191.695 163.041 185.564 168.251C182.519 170.839 179.78 173.745 176.761 176.363C175.495 177.461 173.863 178.183 171.821 179.197C169.378 179.716 166.815 179.13 166.792 182.133C166.333 182.411 165.874 182.688 164.898 182.977C164.001 183.001 163.53 182.881 163.256 183.048C160.668 184.633 158.541 183.889 156.587 181.982C154.512 179.956 156.68 178.928 157.646 177.563C157.784 177.368 157.276 176.764 157.133 176.173C157.415 175.873 157.633 175.749 158.009 175.561C158.37 175.391 158.546 175.254 158.909 175.007C159.482 174.675 159.84 174.422 160.509 174.173C164.01 174.685 165.218 172.567 166.516 170.191C173.521 163.563 180.41 157.158 187.568 150.715C189.215 148.498 190.592 146.319 191.983 144.158C191.997 144.177 191.95 144.166 192.128 144.028C192.459 143.491 192.613 143.091 192.847 142.494C193.177 141.957 193.426 141.616 193.937 141.211C195.012 139.47 195.826 137.792 196.67 135.942C196.701 135.769 196.801 135.431 197.044 135.345C197.574 134.537 197.862 133.816 198.178 132.821C201.666 124.487 204.412 116.147 204.245 107.445C204.06 97.7416 202.808 88.0566 202.021 78.0688C200.937 74.0393 200.063 70.2327 198.673 66.6023C198.037 64.9408 196.387 63.6262 195.161 61.99C195.125 61.8258 195.08 61.4931 195.015 61.3477C194.825 61.0245 194.666 60.8794 194.368 60.5481C192.467 57.3184 190.674 54.3076 188.842 51.0288C187.755 47.7242 186.706 44.6876 185.431 40.9997C187.202 40.1042 189.234 39.0759 191.267 38.0477C191.547 38.0578 191.762 38.1757 192.058 38.7302C192.363 39.2507 192.555 39.4024 192.783 39.5139C192.783 39.5139 192.774 39.5217 192.785 39.7809C193.572 40.8391 194.347 41.6381 195.122 42.4371C195.122 42.4371 195.097 42.4522 195.208 42.5889C195.488 42.9126 195.692 43.0563 195.929 43.1569C195.929 43.1569 195.88 43.1734 195.957 43.2986C196.148 43.6137 196.295 43.7754 196.478 43.9088C196.51 44.027 196.543 44.1451 196.718 44.5926C197.026 45.1086 197.227 45.2517 197.462 45.3514C197.462 45.3514 197.421 45.3764 197.504 45.504C197.703 45.8185 197.854 45.9766 198.038 46.1058C198.038 46.1058 198.124 46.4523 198.266 46.7793C198.572 47.298 198.771 47.4468 199.006 47.5528C199.006 47.5528 198.968 47.5722 198.987 47.8106C199.531 48.603 200.056 49.157 200.581 49.711C200.581 49.711 200.552 49.767 200.625 49.888C200.819 50.2041 200.975 50.3682 201.167 50.5013ZM161.033 179.749C161.368 179.666 161.703 179.582 162.039 179.499C161.956 179.29 161.873 179.081 161.79 178.872C161.452 179.075 161.113 179.278 161.033 179.749Z" fill="#916FFA"/>
<path d="M9.42862 119.297C6.02394 105.523 5.95207 91.7851 10.2329 77.6446C11.8913 72.92 13.2475 68.6424 14.6036 64.3648C14.6036 64.3648 14.7148 64.0168 15.0418 63.7869C17.2531 60.0834 19.9584 57.9213 24.4871 58.4553C23.8631 60.0482 23.2627 61.5611 22.6778 63.0793C22.0705 64.6556 21.0891 66.2074 20.9518 67.8217C20.5302 72.7775 20.4345 77.758 20.1747 83.0093C19.6468 85.5233 19.1564 87.757 18.4625 90.2247C18.3832 93.4887 18.5075 96.5186 18.5906 99.7925C18.5062 100.362 18.4631 100.688 18.2606 101.261C18.0053 103.532 17.9093 105.555 17.8118 107.9C17.9922 109.892 18.0463 111.584 18.3821 113.225C19.1313 116.885 20.6177 120.514 20.6588 124.166C20.6899 126.926 21.6324 128.366 23.9037 129.722C23.9525 129.89 24.0171 130.231 24.0108 130.524C23.2371 132.025 22.6753 133.426 21.6548 134.397C20.06 135.914 18.4372 137.184 19.8656 138.514C22.5173 137.531 24.4463 136.817 26.3564 136.112C26.3375 136.123 26.3571 136.086 26.3374 136.355C24.5883 139.33 22.8589 142.037 20.8598 145.165C16.857 137.964 13.3853 130.902 11.5533 123.162C11.2292 121.792 10.1559 120.581 9.42862 119.297Z" fill="#76C7F6"/>
<path d="M32.4714 36.504C37.9572 31.6608 43.443 26.8177 49.47 21.92C50.8814 21.1518 51.7516 20.4382 52.6218 19.7245C52.6218 19.7245 52.6449 19.7601 52.9276 19.7424C57.7338 17.7456 62.2573 15.7666 67.3437 13.5414C65.9618 15.2808 63.6929 17.2678 64.0405 17.844C65.8998 20.9258 64.8077 23.5151 63.31 26.282C63.1411 26.3381 62.7879 26.3934 62.4781 26.3816C57.8935 27.132 54.7848 29.3913 52.6833 32.961C52.6686 32.9593 52.6794 32.9855 52.3974 32.9819C51.0164 33.9521 49.9174 34.9259 48.7965 35.8826C48.7745 35.8657 48.8182 35.8961 48.659 35.9882C48.3006 36.229 48.1473 36.4121 48.0202 36.6119C48.0005 36.5944 48.0374 36.6316 47.8781 36.7226C47.519 36.9599 47.3642 37.1407 47.1724 37.5705C46.37 38.3701 45.6494 38.9551 44.6918 39.5865C44.0958 40.0898 43.7368 40.5467 43.3666 40.9947C43.3553 40.9858 43.3753 41.0061 43.2262 41.0752C42.8872 41.2577 42.7265 41.4004 42.349 41.6828C40.7313 43.4824 39.3594 45.1716 37.7822 46.7031C33.5816 43.8816 35.2614 41.1716 38.3042 38.4023C35.8951 37.6182 34.1833 37.0611 32.4714 36.504Z" fill="#75BCF8"/>
<path d="M32.2246 36.605C34.1833 37.0611 35.8952 37.6182 38.3042 38.4023C35.2614 41.1717 33.5816 43.8816 37.7618 46.9653C34.0512 52.2127 29.929 56.8736 27.8108 62.7852C25.4132 69.4764 22.7564 76.0846 20.2123 82.729C20.4346 77.758 20.5303 72.7775 20.9519 67.8217C21.0892 66.2074 22.0706 64.6556 22.6779 63.0793C23.2628 61.5611 23.8632 60.0482 24.4872 58.4553C19.9585 57.9213 17.2532 60.0834 15.1074 63.616C17.5477 54.9558 22.8132 47.612 28.698 40.6007C29.7891 39.3008 30.8844 38.0042 32.2246 36.605Z" fill="#75C3F6"/>
<path d="M63.4788 26.2258C64.8077 23.5151 65.8997 20.9258 64.0405 17.844C63.6929 17.2678 65.9618 15.2808 67.3437 13.5414C62.2572 15.7666 57.7338 17.7456 52.9092 19.7309C57.7287 16.8249 62.7152 13.6664 68.0176 11.0883C71.4833 9.40315 75.4068 8.55956 79.657 7.4978C83.0721 8.42114 85.9555 9.18571 89.4109 10.102C85.5848 13.5719 82.6625 16.222 79.4783 18.9981C73.9704 21.4913 68.7246 23.8586 63.4788 26.2258Z" fill="#78B6F8"/>
<path d="M145.548 192.337C140.24 193.652 134.98 195.191 129.61 196.209C125.422 197.002 121.097 197.149 116.597 197.279C121.817 196.743 123.344 193.048 124.396 188.888C124.599 188.084 125.056 187.338 125.554 186.308C132.041 184.528 138.369 183.005 144.901 181.648C147.849 184.75 144.463 186.56 143.62 188.532C144.354 189.981 144.951 191.159 145.548 192.337Z" fill="#8D78FA"/>
<path d="M79.7402 18.8722C82.6624 16.2221 85.5847 13.5719 89.4108 10.102C85.9554 9.18572 83.072 8.42115 79.9638 7.47997C86.4868 5.85786 93.2347 4.41234 100.365 3.23172C101.227 3.78839 101.706 4.08017 102.243 4.59919C102.214 6.36433 102.129 7.90223 102.013 9.99642C101.573 11.0156 101.112 12.0835 100.494 13.2583C100.137 13.525 99.979 13.716 99.5693 14.0128C92.7636 15.6825 86.2519 17.2773 79.7402 18.8722Z" fill="#7AADF9"/>
<path d="M191.237 37.7906C189.234 39.0759 187.201 40.1041 185.431 40.9997C186.705 44.6876 187.755 47.7241 188.565 50.991C183.229 46.086 178.118 40.9633 173.056 35.7982C172.491 35.2217 172.2 34.4043 172.06 33.6479C174.252 30.9285 176.168 28.2599 178.083 25.5912C182.458 29.572 186.833 33.5527 191.237 37.7906Z" fill="#8D77F5"/>
<path d="M178.075 25.603C176.168 28.2599 174.252 30.9285 171.776 33.618C166.53 30.683 161.846 27.7271 157.176 24.5082C157.732 23.5094 158.259 22.7634 158.819 22.0398C160.323 20.095 161.841 18.1597 163.353 16.2207C167.413 18.7034 171.473 21.1861 175.709 24.1373C176.619 24.9364 177.355 25.267 178.09 25.5976C178.09 25.5976 178.067 25.6147 178.075 25.603Z" fill="#8C81F9"/>
<path d="M89.7794 194.761C81.8588 194.62 75.0543 191.358 68.3948 187.486C70.635 185.599 72.8004 184.127 74.7683 182.79C73.6678 181.072 72.849 179.794 72.3197 178.559C78.3586 180.539 84.108 182.478 89.6545 184.461C90.3512 187.306 90.4516 189.939 87.3865 191.687C88.357 192.934 89.0682 193.847 89.7794 194.761Z" fill="#8491F8"/>
<path d="M89.9244 195.006C89.0682 193.847 88.357 192.934 87.3865 191.687C90.4516 189.939 90.3511 187.306 89.9625 184.493C95.6709 185.482 100.868 186.485 105.945 187.708C105.99 190.515 106.156 193.1 106.31 195.502C108.169 196.117 110.213 196.792 112.256 197.468C104.72 197.983 97.3072 197.402 89.9244 195.006Z" fill="#8786FA"/>
<path d="M100.652 13.1515C101.112 12.0835 101.573 11.0156 102.013 9.99643C102.129 7.90224 102.214 6.36433 102.249 4.3823C102.204 3.6484 102.208 3.35863 102.213 3.06886C102.213 3.06886 102.548 2.96018 102.95 2.93811C103.505 2.91031 103.657 2.90457 103.81 2.89883C108.178 2.91979 112.546 2.94075 117.491 2.94304C118.213 2.91814 118.359 2.91191 118.504 2.90567C118.504 2.90567 118.874 2.96503 119.271 3.16071C120.543 3.48038 121.418 3.60436 122.295 4.02787C122.091 5.39633 121.68 6.47139 121.716 7.53313C121.854 11.6717 119.473 12.5607 115.593 12.5121C110.616 12.4499 105.632 12.9141 100.652 13.1515Z" fill="#7BA6FE"/>
<path d="M9.38037 119.595C10.1559 120.581 11.2292 121.792 11.5533 123.162C13.3853 130.902 16.857 137.964 20.8598 145.165C22.8589 142.037 24.5883 139.33 26.5959 136.456C27.7321 138.166 28.59 140.044 29.3021 142.103C27.3139 145.106 30.1316 143.765 30.9954 144.161C30.9713 144.174 30.9977 144.128 31.095 144.282C31.3483 144.629 31.5408 144.781 31.9904 144.975C32.3195 145.487 32.4278 145.916 32.5361 146.346C32.0131 148.38 31.2074 150.394 31.0463 152.453C30.8839 154.531 30.7488 156.347 28.0806 157.267C20.0177 148.937 15.1923 138.989 11.6447 128.424C10.7069 125.63 10.0941 122.74 9.38037 119.595Z" fill="#7BC3F2"/>
<path d="M142.468 7.29771C142.816 7.31561 143.164 7.3335 143.886 7.51066C144.43 7.82368 144.627 7.93447 144.852 8.00229C144.852 8.00229 145.224 8.07911 145.541 8.33869C146.287 9.04183 146.668 9.54189 147.155 9.91951C149.746 11.9294 150.126 13.8608 146.742 15.3413C144.621 16.2692 142.331 16.8507 139.796 17.5701C134.79 16.5413 130.104 15.5301 125.496 14.2992C126.687 13.7724 127.8 13.4653 128.913 13.1581C128.671 12.9614 128.429 12.7647 128.187 12.568C129.345 11.1714 130.529 9.79317 131.652 8.37191C132.455 7.35554 133.176 6.28143 133.934 5.23309C136.067 5.69323 138.2 6.15336 140.799 6.80212C141.666 7.09307 142.067 7.19539 142.468 7.29771Z" fill="#8395FA"/>
<path d="M140.116 17.5877C142.331 16.8507 144.621 16.2692 146.742 15.3413C150.126 13.8608 149.746 11.9294 147.155 9.9195C146.668 9.54188 146.287 9.04182 145.719 8.40054C151.337 10.7892 157.093 13.3756 163.101 16.0913C161.841 18.1597 160.323 20.095 158.819 22.0398C158.26 22.7634 157.732 23.5094 156.901 24.4844C151.112 22.345 145.614 19.9663 140.116 17.5877Z" fill="#878AF7"/>
<path d="M112.575 197.527C110.213 196.792 108.17 196.117 106.31 195.502C106.156 193.1 105.991 190.515 106.303 187.653C112.986 187.105 119.191 186.835 125.396 186.565C125.056 187.338 124.6 188.084 124.396 188.888C123.345 193.048 121.817 196.743 116.247 197.224C115.054 197.511 113.974 197.549 112.575 197.527Z" fill="#8B7FFC"/>
<path d="M145.846 192.386C144.951 191.159 144.354 189.981 143.621 188.532C144.464 186.56 147.849 184.75 145.046 181.413C149.014 179.457 153.041 177.903 157.068 176.349C157.276 176.764 157.784 177.368 157.646 177.563C156.68 178.928 154.512 179.956 156.587 181.982C158.541 183.889 160.668 184.633 163.257 183.048C163.53 182.881 164.001 183.001 164.679 182.992C159.738 187.993 152.802 189.967 145.846 192.386Z" fill="#9174F8"/>
<path d="M72.0303 178.516C72.8491 179.794 73.6679 181.072 74.7684 182.79C72.8004 184.127 70.635 185.599 68.2854 187.249C62.7856 184.7 59.2483 189.307 54.5908 190.091C56.5308 188.336 58.7156 186.792 60.9016 185.247C60.1399 184.129 59.5561 183.273 59.3114 182.913C60.3928 181.236 61.2138 179.962 62.0766 178.623C59.5704 178.242 58.0288 178.008 56.6276 177.528C62.0677 175.348 67.2757 174.427 72.0303 178.516Z" fill="#809FF8"/>
<path d="M56.4873 177.773C58.0289 178.008 59.5705 178.242 62.0766 178.623C61.2138 179.962 60.3928 181.236 59.3114 182.913C59.5561 183.273 60.1399 184.129 60.9016 185.247C58.7157 186.792 56.5309 188.336 54.2977 190.128C52.8791 191.073 51.5088 191.771 49.6614 192.445C48.7161 190.856 48.5221 189.145 47.7059 187.762C46.8057 186.237 45.3344 185.013 44.2141 183.436C48.3733 181.4 52.4303 179.587 56.4873 177.773Z" fill="#7CAAF8"/>
<path d="M133.604 5.1846C133.176 6.28144 132.455 7.35555 131.652 8.37191C130.529 9.79318 129.345 11.1714 128.187 12.568C128.429 12.7647 128.671 12.9614 128.913 13.1581C127.8 13.4653 126.687 13.7724 125.158 14.3516C118.307 14.3742 111.872 14.1044 105.435 13.8879C103.581 13.8256 101.721 13.9171 99.8633 13.938C99.9791 13.716 100.137 13.525 100.494 13.2583C105.632 12.9141 110.616 12.4499 115.593 12.5121C119.473 12.5607 121.854 11.6717 121.716 7.53313C121.68 6.47139 122.091 5.39633 122.518 3.99809C122.888 3.65217 123.037 3.63555 123.186 3.61893C126.549 4.12465 129.912 4.63038 133.604 5.1846Z" fill="#7E9EF7"/>
<path d="M44.1118 183.658C45.3343 185.013 46.8055 186.237 47.7058 187.762C48.522 189.145 48.7159 190.856 49.3882 192.471C46.9374 193.665 44.2825 194.811 41.3737 196.066C39.0003 195.847 36.836 195.666 34.7851 195.112C34.0322 194.908 33.5475 193.818 32.9404 193.133C33.602 192.687 34.2725 191.846 34.9237 191.86C39.0015 191.942 38.7992 189.752 37.9423 186.555C40.0004 185.214 42.0561 184.436 44.1118 183.658Z" fill="#7AB4F7"/>
<path d="M14.336 64.4699C13.2474 68.6424 11.8913 72.92 10.3545 77.3765C11.472 73.2286 12.7702 68.9018 14.336 64.4699Z" fill="#75C3F6"/>
<path d="M167.028 181.977C166.815 179.13 169.378 179.716 171.559 179.315C170.337 180.148 168.8 180.985 167.028 181.977Z" fill="#9174F8"/>
<path d="M52.3412 19.7488C51.7516 20.4382 50.8814 21.1518 49.7422 21.8937C50.3357 21.2057 51.1981 20.4894 52.3412 19.7488Z" fill="#78B6F8"/>
<path d="M195.091 42.191C194.347 41.6381 193.572 40.8391 192.79 39.7771C193.542 40.3244 194.301 41.1347 195.091 42.191Z" fill="#8D77F5"/>
<path d="M178.001 25.3746C177.355 25.2671 176.62 24.9365 175.819 24.3654C176.473 24.4672 177.192 24.8094 178.001 25.3746Z" fill="#8D77F5"/>
<path d="M200.559 49.4719C200.056 49.157 199.531 48.603 199.001 47.795C199.509 48.1049 200.023 48.6689 200.559 49.4719Z" fill="#8D77F5"/>
<path d="M123.029 3.37236C123.038 3.63554 122.889 3.65216 122.516 3.69855C121.418 3.60435 120.543 3.48037 119.451 3.21093C120.446 3.08559 121.658 3.1057 123.029 3.37236Z" fill="#7398E4"/>
<path d="M101.95 3.01172C102.208 3.35861 102.204 3.64838 102.193 4.15505C101.706 4.08016 101.227 3.78838 100.686 3.2889C100.979 3.03899 101.333 2.99679 101.95 3.01172Z" fill="#7398E4"/>
<path d="M142.388 7.08514C142.067 7.19541 141.666 7.09309 141.107 6.85949C141.402 6.77632 141.855 6.82443 142.388 7.08514Z" fill="#878AF7"/>
<path d="M144.798 7.8131C144.627 7.93446 144.43 7.82368 144.145 7.54686C144.268 7.4905 144.506 7.5572 144.798 7.8131Z" fill="#878AF7"/>
<path d="M118.445 2.71773C118.359 2.9119 118.213 2.91814 117.849 2.91635C117.882 2.78215 118.134 2.65597 118.445 2.71773Z" fill="#7398E4"/>
<path d="M103.747 2.70805C103.657 2.90458 103.505 2.91032 103.124 2.90661C103.159 2.77053 103.422 2.6439 103.747 2.70805Z" fill="#7398E4"/>
<path d="M197.395 45.1715C197.227 45.2517 197.026 45.1086 196.755 44.7724C196.877 44.7457 197.102 44.8686 197.395 45.1715Z" fill="#8D77F5"/>
<path d="M198.088 45.9131C197.854 45.9766 197.703 45.8185 197.518 45.4851C197.679 45.4659 197.909 45.5932 198.088 45.9131Z" fill="#8D77F5"/>
<path d="M198.954 47.363C198.771 47.4468 198.572 47.298 198.307 46.9531C198.437 46.9243 198.669 47.0487 198.954 47.363Z" fill="#8D77F5"/>
<path d="M201.205 50.3053C200.975 50.3681 200.819 50.2041 200.627 49.8569C200.784 49.8396 201.013 49.9744 201.205 50.3053Z" fill="#8D77F5"/>
<path d="M195.868 42.97C195.692 43.0563 195.488 42.9126 195.212 42.5754C195.339 42.5444 195.572 42.6637 195.868 42.97Z" fill="#8D77F5"/>
<path d="M192.736 39.326C192.556 39.4024 192.363 39.2507 192.108 38.906C192.236 38.8815 192.463 39.0098 192.736 39.326Z" fill="#8D77F5"/>
<path d="M196.524 43.7188C196.295 43.7754 196.148 43.6137 195.968 43.2758C196.124 43.2614 196.347 43.3951 196.524 43.7188Z" fill="#8D77F5"/>
<path d="M202.021 78.0688C200.484 74.8363 198.961 71.3035 197.405 67.7837C196.652 66.0795 195.837 64.3996 195.124 62.4315C196.387 63.6262 198.037 64.9408 198.673 66.6023C200.063 70.2326 200.937 74.0392 202.021 78.0688Z" fill="#8C75DD"/>
<path d="M160.509 174.173C162.075 172.935 163.952 171.702 166.114 170.441C165.219 172.567 164.01 174.685 160.509 174.173Z" fill="#9174F8"/>
<path d="M187.568 150.715C188.692 148.62 190.085 146.488 191.724 144.247C190.592 146.319 189.215 148.498 187.568 150.715Z" fill="#8971E1"/>
<path d="M193.937 141.211C194.494 139.626 195.313 137.978 196.386 136.222C195.826 137.792 195.012 139.47 193.937 141.211Z" fill="#8971E1"/>
<path d="M160.904 179.615C161.113 179.278 161.452 179.075 161.79 178.872C161.873 179.081 161.956 179.29 162.039 179.499C161.703 179.582 161.368 179.666 160.904 179.615Z" fill="#9174F8"/>
<path d="M197.044 135.345C197.088 134.716 197.375 134.001 197.906 133.191C197.862 133.816 197.574 134.537 197.044 135.345Z" fill="#8971E1"/>
<path d="M192.128 144.028C192.062 143.718 192.174 143.269 192.527 142.756C192.613 143.091 192.459 143.491 192.128 144.028Z" fill="#8971E1"/>
<path d="M158.009 175.561C157.999 175.419 158.147 175.213 158.495 175.046C158.546 175.254 158.37 175.391 158.009 175.561Z" fill="#9174F8"/>
<path d="M195.015 61.3477C194.866 61.3729 194.651 61.2527 194.456 60.9497C194.667 60.8794 194.825 61.0245 195.015 61.3477Z" fill="#8C75DD"/>
<path d="M19.2206 107.598C20.8157 114.726 22.4108 121.855 23.9304 129.269C21.6324 128.366 20.6898 126.926 20.6588 124.166C20.6177 120.514 19.1313 116.885 18.3821 113.225C18.0462 111.584 17.9922 109.892 18.0462 107.906C18.595 107.592 18.9078 107.595 19.2206 107.598Z" fill="#7BC3F2"/>
<path d="M24.0107 130.524C24.7804 132.001 25.5438 133.77 26.3412 135.821C24.4462 136.817 22.5172 137.531 19.8655 138.514C18.4371 137.184 20.0599 135.914 21.6548 134.397C22.6752 133.426 23.237 132.025 24.0107 130.524Z" fill="#7BC3F2"/>
<path d="M18.4625 90.2247C18.8465 93.0717 19.0269 96.1529 18.9196 99.3912C18.5076 96.5186 18.3832 93.4887 18.4625 90.2247Z" fill="#70B8E0"/>
<path d="M19.278 107.287C18.9079 107.595 18.595 107.592 18.0478 107.583C17.9093 105.555 18.0053 103.532 18.2606 101.261C18.7251 103.001 19.0302 104.989 19.278 107.287Z" fill="#70B8E0"/>
<path d="M62.478 26.3817C59.6052 28.5583 56.4226 30.7231 52.969 32.9253C54.7846 29.3913 57.8933 27.1321 62.478 26.3817Z" fill="#78B6F8"/>
<path d="M52.3974 32.9819C51.5772 33.9403 50.4751 34.8951 49.0957 35.8747C49.9175 34.9259 51.0164 33.9521 52.3974 32.9819Z" fill="#78B6F8"/>
<path d="M44.6917 39.5865C44.5579 39.9852 44.187 40.4304 43.5969 40.9395C43.7367 40.5467 44.0957 40.0898 44.6917 39.5865Z" fill="#78B6F8"/>
<path d="M47.878 36.7226C47.9059 36.8424 47.7745 37.0532 47.4486 37.31C47.3641 37.1407 47.5189 36.9599 47.878 36.7226Z" fill="#78B6F8"/>
<path d="M43.2262 41.0752C43.246 41.2123 43.1167 41.4186 42.7911 41.5986C42.7265 41.4004 42.8873 41.2577 43.2262 41.0752Z" fill="#78B6F8"/>
<path d="M48.659 35.9882C48.6886 36.1086 48.5591 36.3211 48.2347 36.5815C48.1473 36.4121 48.3006 36.229 48.659 35.9882Z" fill="#78B6F8"/>
<path d="M29.3022 142.103C29.9523 142.504 30.4564 143.086 30.9901 143.908C30.1318 143.765 27.314 145.106 29.3022 142.103Z" fill="#7ABCF4"/>
<path d="M31.095 144.282C31.2236 144.258 31.4495 144.387 31.7225 144.704C31.5408 144.781 31.3483 144.629 31.095 144.282Z" fill="#7ABCF4"/>
<path d="M161.079 126.565C162.803 128.15 164.572 128.528 166.846 127.335C168.982 126.216 171.437 125.65 173.616 124.592C178.558 122.191 180.197 117.667 181.074 112.987C181.476 110.838 180.849 108.476 180.457 106.247C179.921 103.193 181.443 100.767 184.391 100.35C187.585 99.8986 190.366 102.034 190.431 105.174C190.519 109.428 190.444 113.684 190.129 118.335C189.264 120.162 188.709 121.593 188.153 123.025C188.153 123.025 188.081 123.347 187.783 123.582C187.191 124.515 186.897 125.215 186.604 125.914C186.604 125.914 186.587 125.88 186.335 125.917C184.555 127.178 182.994 128.368 181.545 129.67C181.383 129.816 181.858 130.596 182.037 131.082C181.466 132.286 180.384 133.499 180.406 134.693C180.546 142.441 174.459 153.576 166.473 158.336C162.651 160.614 158.996 161.946 154.265 162.33C153.582 161.117 153.004 159.968 153.275 159.041C153.803 157.233 154.806 155.55 155.889 153.757C158.608 152.311 161.197 151.108 163.46 149.496C168.003 146.264 170.054 141.633 171.023 135.889C167.518 137.252 163.059 135.272 160.857 139.635C159.751 138.21 158.547 137.049 158.034 135.66C157.322 133.733 156.975 131.646 156.802 129.603C156.745 128.933 157.568 127.988 158.256 127.525C159.041 126.998 160.125 126.868 161.079 126.565Z" fill="#9071F8"/>
<path d="M40.9573 138.36C35.3911 135.436 31.7826 130.94 30.2841 125.215C29.0005 120.312 28.3895 115.237 30.1874 110.238C30.7 108.813 30.8503 107.038 31.8568 106.054C33.9108 104.047 33.0152 102.529 31.7238 100.777C25.6881 92.5907 27.7805 76.9793 37.605 70.8271C38.8607 70.0408 39.9501 68.5432 41.2491 68.3919C43.9249 68.0802 43.2502 66.4428 43.6958 64.71C46.176 64.3558 46.5392 65.357 45.4897 66.8875C44.5017 68.3283 43.3056 69.6415 42.0123 71.2447C47.4074 70.866 46.2774 75.3401 47.6787 77.6075C46.2593 77.9684 44.8978 78.1053 44.0511 78.8016C37.8928 83.8665 36.7938 89.6037 40.1866 97.4479C40.3834 97.9841 40.7245 98.3822 41.0488 98.792C41.032 98.8038 41.0551 98.7708 41.1567 98.9246C41.4226 99.2705 41.624 99.4166 42.0487 99.5397C42.2346 99.5624 42.5905 99.6744 42.8357 99.8198C44.7364 99.7894 46.3919 99.6136 48.3304 99.4909C49.1863 99.5884 49.7593 99.6329 50.5397 99.8151C51.5085 100.263 52.27 100.572 53.0799 100.902C49.6903 105.602 49.672 105.549 43.8703 107.356C41.9627 107.95 39.5514 108.394 40.288 111.565C38.0708 116.057 38.0062 120.515 40.1498 124.493C41.8671 127.68 44.8437 130.26 47.2072 133.393C46.8057 137.269 44.8466 138.955 40.9573 138.36Z" fill="#77BFF5"/>
<path d="M161.049 126.293C160.125 126.868 159.041 126.998 158.256 127.525C157.568 127.988 156.745 128.933 156.802 129.603C156.975 131.646 157.322 133.733 158.034 135.66C158.547 137.049 159.751 138.21 160.834 139.917C160.113 144.025 157.885 146.401 154.183 148.078C152.848 148.683 152.584 151.4 151.831 153.153C153.091 153.374 154.351 153.595 155.612 153.816C154.806 155.55 153.803 157.233 153.275 159.041C153.004 159.968 153.582 161.117 153.941 162.365C150.956 163.404 148.82 165.386 146.667 167.676C141.816 172.836 135.545 175.848 128.103 176.802C128.979 173.166 133.197 171.148 132.385 166.988C137.516 164.279 140.136 159.91 141.934 154.785C142.88 152.087 141.93 151.683 139.461 151.441C136.741 151.174 133.751 150.979 131.5 149.741C130.189 149.02 129.259 146.115 129.68 144.561C130.15 142.83 132.038 141.259 134.853 142.415C140.27 144.64 145.341 143.296 149.613 139.895C154.446 136.046 154.348 130.292 150.033 125.816C149.242 124.995 148.053 124.068 148.009 123.149C147.926 121.453 148.591 118.238 148.884 118.244C151.554 118.3 154.721 118.228 156.729 119.559C158.758 120.904 159.637 123.802 161.049 126.293Z" fill="#8E77F9"/>
<path d="M158.71 54.2856C163.341 50.8384 173.191 51.1729 176.89 55.1935C175.512 56.5384 172.977 57.3301 172.571 58.6904C171.859 61.0693 171.514 62.881 168.44 63.4075C167.445 63.578 166.315 65.2331 165.997 66.3931C164.25 72.7512 161.433 78.9379 162.523 85.7906C162.868 87.9642 162.135 89.6264 159.249 90.2816C158.075 90.548 156.999 92.6897 156.668 94.1394C156.507 94.8409 158.03 96.1055 159.045 96.7664C160.065 97.4303 161.401 97.6608 162.598 98.0813C160.222 99.5349 157.847 100.988 154.893 102.448C152.84 102.034 151.287 101.773 149.906 101.165C146.383 99.6142 144.879 93.7739 146.208 90.413C147.404 87.3907 147.608 83.998 148.088 80.7474C148.749 76.2717 147.214 70.9893 151.131 67.6758C153.794 65.4236 155.099 63.7241 153.307 60.5401C157.079 59.6748 159.187 57.8875 158.71 54.2856Z" fill="#BA8EFD"/>
<path d="M162.793 98.0331C161.401 97.6608 160.065 97.4303 159.045 96.7664C158.03 96.1055 156.507 94.8409 156.668 94.1394C156.999 92.6897 158.075 90.548 159.249 90.2816C162.135 89.6264 162.868 87.9642 162.523 85.7906C161.433 78.9379 164.251 72.7512 165.997 66.3931C166.316 65.2331 167.445 63.5781 168.441 63.4075C171.514 62.881 171.859 61.0693 172.571 58.6904C172.978 57.3301 175.512 56.5384 177.188 55.2522C181.511 57.6127 183.382 61.3181 183.514 66.0547C183.701 72.8053 182.87 79.2847 178.017 84.5902C175.879 86.9272 173.1 88.7297 170.739 90.8979C169.111 92.392 167.701 94.0974 165.792 95.8978C165.2 96.2406 165.051 96.4242 164.944 96.6379C164.944 96.6379 164.915 96.6326 164.7 96.6639C164.119 96.9135 163.755 97.1317 163.391 97.3499C163.256 97.5616 163.122 97.7733 162.793 98.0331Z" fill="#BA8AFD"/>
<path d="M158.43 54.2325C159.187 57.8875 157.079 59.6748 153.307 60.5401C155.099 63.7241 153.794 65.4236 151.131 67.6758C147.214 70.9893 148.749 76.2717 148.088 80.7474C147.608 83.998 147.404 87.3907 146.208 90.4131C144.879 93.7739 146.383 99.6142 149.906 101.165C151.287 101.773 152.84 102.034 154.614 102.471C151.167 104.513 148.56 102.078 145.874 100.315C142.935 98.3868 140.14 96.2629 137.048 93.829C136.6 93.2788 136.387 93.1239 136.173 92.969C136.173 92.969 136.229 92.9752 136.196 92.7518C135.16 91.2091 134.157 89.8898 133.169 88.2864C135.284 81.7466 138.069 75.6347 137.162 68.7912C137.039 67.8565 137.95 66.8084 138.349 65.8012C139.994 61.6518 141.626 57.498 143.263 53.3458C146.429 54.8938 149.595 56.4417 152.579 57.9008C154.216 56.8069 156.183 55.4931 158.43 54.2325Z" fill="#BA94FC"/>
<path d="M143.236 53.051C141.626 57.498 139.994 61.6518 138.349 65.8012C137.95 66.8084 137.039 67.8565 137.163 68.7911C138.069 75.6347 135.284 81.7466 132.948 88.1554C131.282 87.4333 129.853 86.5581 128.423 85.6828C128.423 85.6828 128.481 85.6555 128.469 85.4253C127.933 84.6232 127.409 84.0513 126.885 83.4793C126.885 83.4793 126.942 83.4508 126.935 83.2072C125.877 81.4243 124.826 79.885 123.774 78.3456C123.774 78.3456 123.831 78.3373 123.8 78.142C123.514 77.5907 123.259 77.2347 123.004 76.8787C120.702 71.1029 120.549 65.1529 123.225 59.6394C126.129 53.6555 135.242 48.3296 143.236 53.051Z" fill="#B69BFC"/>
<path d="M109.92 172.773C102.545 176.294 95.007 178.105 86.7812 174.27C87.3346 173.55 88.0625 173.207 88.8332 173.035C90.3674 172.693 91.9252 172.445 93.4774 172.157C92.5851 169.882 91.9867 168.356 91.6464 166.863C92.2445 166.957 92.5845 167.019 93.0432 167.186C93.3349 167.417 93.5248 167.515 94.0553 167.59C101.082 167.564 103.957 165.275 105.586 158.549C105.856 157.211 106.131 156.117 106.039 155.052C105.225 145.615 106.561 136.466 110.287 127.69C111.026 125.949 112.602 124.525 113.798 123.298C113.804 134.477 113.776 145.312 113.839 156.147C113.848 157.55 114.326 158.951 114.602 160.521C114.618 160.688 114.602 161.024 114.602 161.024C114.584 161.148 114.566 161.272 114.278 161.725C113.689 163.159 113.371 164.262 112.935 165.615C111.852 168.167 110.886 170.47 109.92 172.773Z" fill="#8787FB"/>
<path d="M53.3352 46.0724C55.0518 44.6655 56.5409 42.6619 58.5349 41.9823C62.1335 40.756 66.0058 40.1206 69.8205 39.6412C71.7236 39.402 72.7032 38.803 74.0475 37.4387C77.2255 34.2137 81.0572 31.5644 84.9426 28.8531C85.7436 28.9195 86.2266 28.8153 86.7096 28.7111C86.7096 28.7111 87.0749 28.6 87.5964 28.5694C91.1278 28.9249 94.1375 29.311 97.1473 29.6971C97.2224 29.9973 97.2975 30.2976 97.3727 30.5978C94.1171 32.1091 90.3996 33.1893 89.5556 37.2949C88.0067 38.3379 86.6057 39.1678 85.4268 40.2201C81.9903 43.2873 79.5749 47.6586 82.4242 51.1036C84.5243 53.6426 86.8386 56.0233 89.2322 58.6556C90.0698 58.9759 90.7327 59.1153 91.3745 59.2665C91.3534 59.2785 91.3827 59.2409 91.4394 59.4898C91.9282 61.1626 92.3602 62.5867 92.7923 64.0107C92.5098 64.0838 92.2273 64.1569 91.9449 64.23C90.9999 63.3794 90.0549 62.5288 89.11 61.6781C88.9004 61.8635 88.6908 62.0489 88.4813 62.2343C88.8174 63.2455 89.1535 64.2567 89.573 65.5185C86.7447 65.117 84.3597 64.7784 81.7307 64.342C77.6247 61.7653 74.4552 58.7927 73.5142 53.9331C73.0151 51.6131 72.5068 49.5981 72.0494 47.3038C72.0198 45.4322 71.9394 43.8399 71.8589 42.2476C70.79 42.5383 69.7211 42.829 68.6522 43.1197C67.4739 42.1355 66.0315 41.3372 64.9953 41.6698C61.0377 42.9399 57.2109 44.5741 53.3352 46.0724Z" fill="#79B0F9"/>
<path d="M53.0937 46.1662C57.2109 44.5741 61.0377 42.9399 64.9953 41.6698C66.0315 41.3372 67.4739 42.1355 68.6522 43.1197C69.7211 42.829 70.79 42.5383 71.8589 42.2476C71.9394 43.8399 72.0198 45.4321 71.7284 47.3006C68.7296 48.5046 66.1026 49.4324 63.1882 50.4187C58.9452 50.7301 57.6737 53.881 55.5022 56.4143C51.7418 60.8508 50.2919 66.6363 54.1143 70.4382C54.1647 70.6055 54.2052 70.9514 54.2655 71.1013C54.4378 71.4411 54.5868 71.6002 54.8367 71.8918C54.9006 72.0552 54.9797 72.3955 55.0561 72.5527C55.2671 72.9052 55.4323 73.074 55.6815 73.3598C55.7351 73.5035 55.7736 73.8061 55.8376 73.9716C56.0235 74.3455 56.1811 74.5261 56.4096 74.8453C56.445 75.0117 56.5245 75.3427 56.627 75.5004C56.9369 75.8048 57.1443 75.9515 57.3259 76.1012C57.3 76.1041 57.3092 76.0556 57.4051 76.2182C57.7068 76.5314 57.9125 76.6819 58.0944 76.8381C58.0706 76.8437 58.0807 76.7982 58.1783 76.9591C58.4831 77.2673 58.6903 77.4146 58.8725 77.5666C58.8475 77.5713 58.8569 77.5239 58.9557 77.686C59.2639 77.9962 59.4733 78.1444 59.6568 78.2992C59.6309 78.3059 59.6511 78.2589 59.6329 78.4547C59.6114 78.7812 59.6081 78.9118 59.4222 79.2663C59.2395 81.7074 59.2395 83.9245 59.2395 85.6684C56.1478 84.0469 52.8038 82.2931 49.2207 80.4395C48.646 79.4406 48.3105 78.5416 47.975 77.6425C46.2773 75.3401 47.4073 70.866 42.0122 71.2447C43.3055 69.6415 44.5016 68.3283 45.4896 66.8875C46.5391 65.3569 46.1759 64.3558 43.7536 64.4086C44.1554 57.2259 47.4384 51.2514 53.0937 46.1662Z" fill="#75BCFB"/>
<path d="M91.3884 166.831C91.9868 168.356 92.5852 169.882 93.4774 172.157C91.9252 172.445 90.3675 172.693 88.8332 173.035C88.0626 173.207 87.3346 173.55 86.6418 174.023C84.5513 172.56 81.7674 171.256 80.4102 169.135C78.3494 165.915 75.9347 164.426 72.0223 164.618C70.4433 164.695 68.8308 164.164 67.0076 163.638C69.5183 163.483 72.2558 163.681 74.9912 163.659C75.7007 163.653 76.4039 162.959 77.11 162.582C76.6967 162.084 76.226 161.122 75.8786 161.16C71.5269 161.639 72.0189 158.319 71.5545 155.957C75.5879 156.474 77.5128 155.194 78.7278 151.594C80.3588 146.76 84.5518 143.891 89.7594 142.871C91.1485 142.599 93.5705 143.377 94.2296 144.409C94.9724 145.571 94.7457 147.79 94.0488 149.137C93.2898 150.603 91.6926 151.912 90.1332 152.733C86.5183 154.638 85.9762 157.672 87.06 160.754C87.8448 162.987 89.8998 164.82 91.3884 166.831Z" fill="#8394F8"/>
<path d="M41.0728 138.597C44.8466 138.955 46.8057 137.268 47.4962 133.428C48.93 132.087 50.0227 130.995 51.1106 129.9C53.4149 127.579 55.7167 125.256 58.2909 122.932C60.7997 122.377 63.0372 121.823 65.8055 121.139C65.8055 123.351 65.8055 125.347 65.6179 127.513C64.5522 128.576 63.6742 129.469 62.753 130.32C62.7098 130.278 62.8008 130.357 62.641 130.356C62.3238 130.476 62.1664 130.596 62.0089 130.716C62.2222 130.824 62.4355 130.932 62.5894 131.299C58.8009 133.877 56.6945 140.709 58.7284 145.803C58.9235 146.838 59.3004 147.694 59.8587 148.606C60.2719 148.804 60.394 149.007 60.4766 149.414C60.6665 149.744 60.8187 149.901 61.0871 150.229C61.4301 150.769 61.6893 151.109 61.9298 151.737C60.6601 155.611 59.6724 155.891 53.4113 154.434C52.379 152.129 51.2064 149.87 50.3507 147.508C49.339 144.716 48.8993 141.722 45.032 140.895C43.6568 140.601 42.4642 139.543 41.0728 138.597Z" fill="#7BB0F9"/>
<path d="M108.426 29.2259C111.273 31.0501 113.018 33.3993 113.112 36.8261C113.144 38.0253 114.042 39.2035 114.555 40.8613C114.554 41.4561 114.543 41.5808 114.346 41.953C114.037 50.576 113.914 58.9514 113.488 67.3314C109.633 67.1998 109.834 69.9489 109.083 72.0274C108.445 73.7928 108.861 76.4788 105.414 75.7931C105.327 73.9846 105.304 72.4905 105.446 70.8451C105.501 70.0604 105.39 69.427 105.305 68.5514C105.312 67.9852 105.295 67.6614 105.423 67.2167C105.469 66.6852 105.37 66.2745 105.298 65.5461C105.31 63.7415 105.296 62.2547 105.285 60.5743C105.286 60.2514 105.284 60.1223 105.303 59.7242C105.311 58.9162 105.296 58.3772 105.285 57.6456C105.286 57.3247 105.284 57.1964 105.304 56.7298C105.304 53.2107 105.281 50.0299 105.405 46.7278C105.452 46.1936 105.353 45.7807 105.285 45.0943C105.092 43.7862 104.868 42.7516 104.931 41.7126C107.119 41.7253 107.735 40.967 107.119 39.1917C106.482 37.3577 106.015 35.4695 105.535 33.5908C105.476 33.3607 105.8 33.0433 106.056 32.559C106.654 33.3574 107.106 33.9616 107.558 34.5659C107.847 34.5375 108.137 34.509 108.426 34.4806C108.426 32.729 108.426 30.9775 108.426 29.2259Z" fill="#7EA0FE"/>
<path d="M110.049 173.004C110.886 170.47 111.852 168.167 113.195 165.628C113.918 165.39 114.264 165.388 114.611 165.386C114.611 165.386 114.581 165.406 114.652 165.635C115.464 166.191 116.205 166.519 116.947 166.847C116.947 166.847 117.323 166.914 117.619 167.095C118.086 167.434 118.29 167.531 118.526 167.568C123.02 168.704 127.469 169.043 132.08 166.939C133.198 171.148 128.979 173.166 127.797 176.75C121.496 177.374 115.651 176.083 110.049 173.004Z" fill="#8C7DFB"/>
<path d="M108.286 28.983C108.426 30.9775 108.426 32.729 108.426 34.4806C108.137 34.509 107.847 34.5375 107.558 34.5659C107.106 33.9617 106.654 33.3574 106.057 32.559C105.8 33.0433 105.477 33.3607 105.535 33.5909C106.015 35.4695 106.483 37.3577 107.119 39.1917C107.736 40.967 107.119 41.7253 104.874 41.4413C103.499 37.8155 100.881 36.0616 97.437 35.9672C94.9076 35.8978 92.3501 36.7449 89.8051 37.1835C90.3996 33.1893 94.1172 32.1091 97.3728 30.5978C97.2976 30.2976 97.2225 29.9973 97.1474 29.6971C94.1376 29.311 91.1278 28.9249 87.7847 28.5338C94.3975 24.4106 101.272 26.5682 108.286 28.983Z" fill="#7DA9F8"/>
<path d="M53.4324 154.691C59.6724 155.891 60.6602 155.611 62.1795 151.844C65.3729 153.112 68.2982 154.561 71.2234 156.01C72.0189 158.319 71.527 161.639 75.8787 161.16C76.226 161.122 76.6967 162.084 77.1101 162.582C76.404 162.959 75.7008 163.653 74.9913 163.659C72.2558 163.681 69.5183 163.483 66.688 163.571C60.7703 162.754 56.7062 159.391 53.4324 154.691Z" fill="#7FA3F7"/>
<path d="M114.531 41.7054C114.543 41.5808 114.554 41.4561 114.575 41.1439C114.841 41.8064 115.323 42.6563 115.323 43.5066C115.354 82.0952 115.344 120.684 115.331 159.272C115.331 159.756 115.243 160.239 114.899 160.873C114.602 161.024 114.618 160.688 114.619 160.17C114.57 136.689 114.52 113.726 114.504 90.4202C114.536 73.9534 114.533 57.8294 114.531 41.7054Z" fill="#B3B9F1"/>
<path d="M128.458 85.9387C129.853 86.5581 131.282 87.4333 132.933 88.4395C134.157 89.8898 135.16 91.2091 136.188 92.7772C133.641 90.7489 131.067 88.4717 128.458 85.9387Z" fill="#B3A0E6"/>
<path d="M182.275 130.981C181.858 130.596 181.383 129.816 181.545 129.67C182.994 128.368 184.555 127.178 186.35 125.931C185.248 127.565 183.88 129.222 182.275 130.981Z" fill="#866FD9"/>
<path d="M123.806 78.6139C124.826 79.885 125.877 81.4243 126.922 83.2353C125.89 81.9654 124.864 80.4238 123.806 78.6139Z" fill="#B3A0E6"/>
<path d="M188.454 122.996C188.709 121.593 189.264 120.162 190.071 118.649C189.8 120.035 189.277 121.501 188.454 122.996Z" fill="#866FD9"/>
<path d="M114.59 165.083C114.264 165.388 113.918 165.39 113.312 165.379C113.371 164.262 113.689 163.159 114.221 161.905C114.479 162.763 114.525 163.771 114.59 165.083Z" fill="#7B7DE3"/>
<path d="M186.854 125.853C186.897 125.215 187.191 124.515 187.725 123.737C187.678 124.369 187.392 125.081 186.854 125.853Z" fill="#866FD9"/>
<path d="M126.916 83.7204C127.409 84.0513 127.933 84.6232 128.459 85.4543C127.956 85.1294 127.452 84.5454 126.916 83.7204Z" fill="#B3A0E6"/>
<path d="M116.853 166.619C116.205 166.519 115.464 166.191 114.662 165.62C115.321 165.715 116.04 166.052 116.853 166.619Z" fill="#7B7DE3"/>
<path d="M86.4571 28.6455C86.2267 28.8153 85.7437 28.9195 85.2136 28.8428C85.5125 28.6345 85.8585 28.6072 86.4571 28.6455Z" fill="#7DA9F8"/>
<path d="M123.04 77.11C123.259 77.2347 123.514 77.5907 123.794 78.1683C123.571 78.0403 123.323 77.6907 123.04 77.11Z" fill="#B3A0E6"/>
<path d="M163.63 97.3406C163.755 97.1317 164.119 96.9135 164.706 96.6765C164.575 96.8823 164.222 97.1068 163.63 97.3406Z" fill="#BA8EFD"/>
<path d="M118.453 167.393C118.29 167.531 118.086 167.434 117.8 167.153C117.917 167.092 118.149 167.154 118.453 167.393Z" fill="#7B7DE3"/>
<path d="M136.228 93.1699C136.387 93.1239 136.6 93.2788 136.915 93.6C136.772 93.6344 136.527 93.5026 136.228 93.1699Z" fill="#B3A0E6"/>
<path d="M165.138 96.5873C165.051 96.4242 165.2 96.2406 165.542 95.9892C165.574 96.1064 165.453 96.3216 165.138 96.5873Z" fill="#BA8EFD"/>
<path d="M50.5396 99.8151C52.7096 99.499 55.098 98.9318 56.5333 101.72C58.3397 105.229 56.5551 108.208 52.4145 108.343C48.3631 108.475 43.8962 107.138 40.5841 111.17C39.5513 108.394 41.9626 107.95 43.8702 107.356C49.6719 105.549 49.6902 105.602 53.0798 100.902C52.2699 100.572 51.5084 100.263 50.5396 99.8151Z" fill="#79B7F2"/>
<path d="M42.8357 99.8198C44.3236 99.4257 46.0567 99.1771 47.9187 99.1832C46.392 99.6136 44.7364 99.7894 42.8357 99.8198Z" fill="#79B7F2"/>
<path d="M40.1865 97.4479C40.5567 97.6522 40.7827 97.9947 41.0371 98.5587C40.7244 98.3821 40.3834 97.9841 40.1865 97.4479Z" fill="#79B7F2"/>
<path d="M41.1567 98.9246C41.282 98.8973 41.5089 99.0238 41.7992 99.3337C41.624 99.4166 41.4226 99.2704 41.1567 98.9246Z" fill="#79B7F2"/>
<path d="M105.586 158.549C105.384 142.689 105.347 126.573 105.663 110.133C109.879 111.25 110.686 108.865 111.497 106.106C111.95 104.566 113.01 103.186 113.801 102.077C113.801 109.265 113.797 116.11 113.793 122.955C112.602 124.525 111.026 125.949 110.287 127.69C106.561 136.466 105.225 145.615 106.039 155.052C106.131 156.117 105.856 157.211 105.586 158.549Z" fill="#878DFB"/>
<path d="M113.798 123.298C113.797 116.11 113.801 109.265 113.806 101.735C113.818 97.6196 113.829 94.1882 113.998 90.7577C114.155 90.7587 114.47 90.7631 114.47 90.7631C114.52 113.726 114.57 136.689 114.603 160.002C114.326 158.951 113.848 157.55 113.84 156.147C113.776 145.312 113.804 134.477 113.798 123.298Z" fill="#7B7DE3"/>
<path d="M93.0432 167.186C93.2047 166.925 93.424 166.982 93.657 167.416C93.5248 167.515 93.3349 167.417 93.0432 167.186Z" fill="#8394F8"/>
<path d="M91.4394 59.4898C94.4259 59.7458 95.5632 62.2174 93.8424 64.5862C91.9439 67.1998 89.2219 67.7636 85.9805 66.3031C84.7744 65.7596 83.4817 65.3879 82.1016 64.6888C84.3597 64.7784 86.7448 65.117 89.573 65.5185C89.1536 64.2567 88.8174 63.2455 88.4813 62.2343C88.6908 62.0489 88.9004 61.8635 89.11 61.6781C90.0549 62.5288 90.9999 63.3794 91.9449 64.23C92.2273 64.1569 92.5098 64.0838 92.7923 64.0107C92.3602 62.5867 91.9282 61.1626 91.4394 59.4898Z" fill="#7FA7F1"/>
<path d="M73.5142 53.9331C73.0422 53.8519 72.3325 53.5473 72.1548 53.0669C70.4054 48.3378 70.4295 48.3266 65.4237 49.9139C64.9631 50.0599 64.5267 50.274 63.7773 50.4084C66.1026 49.4324 68.7296 48.5046 71.6776 47.58C72.5068 49.5981 73.0151 51.6131 73.5142 53.9331Z" fill="#83B0E5"/>
<path d="M89.2322 58.6556C89.7648 58.5781 90.4721 58.6817 91.2876 59.0199C90.7327 59.1153 90.0698 58.976 89.2322 58.6556Z" fill="#7FA7F1"/>
<path d="M63.5339 80.4327C63.8637 80.4683 64.1936 80.5039 64.8961 80.7099C65.4556 81.0386 65.67 81.1491 65.9119 81.2118C65.9119 81.2118 66.2277 81.2188 66.5687 81.373C67.5739 81.6745 68.2379 81.8218 68.899 82.2437C66.8338 84.7355 64.7715 86.9527 62.7091 89.1699C57.0396 88.3255 52.7946 85.4191 49.5098 80.7951C52.8038 82.2932 56.1478 84.047 59.2394 85.6684C59.2394 83.9245 59.2394 81.7074 59.6347 79.2654C60.1712 79.0338 60.3125 79.027 60.4537 79.0202C60.8095 79.2657 61.1652 79.5111 61.7803 80.0199C62.5377 80.3331 63.0358 80.3829 63.5339 80.4327Z" fill="#78B6F8"/>
<path d="M55.5022 56.4143C55.2549 60.7767 54.724 65.1869 54.1285 69.934C50.2919 66.6363 51.7418 60.8508 55.5022 56.4143Z" fill="#7AB5EC"/>
<path d="M58.9558 77.686C59.0929 77.6521 59.3287 77.7803 59.6237 78.1005C59.4734 78.1444 59.264 77.9963 58.9558 77.686Z" fill="#82B3EA"/>
<path d="M54.2654 71.1013C54.4233 71.0859 54.6415 71.2203 54.8162 71.5416C54.5867 71.6002 54.4377 71.4411 54.2654 71.1013Z" fill="#7AB5EC"/>
<path d="M55.0562 72.5527C55.2182 72.5326 55.4566 72.6697 55.6615 73.0114C55.4324 73.074 55.2672 72.9052 55.0562 72.5527Z" fill="#82B3EA"/>
<path d="M55.8376 73.9716C56.0135 73.9597 56.2534 74.1134 56.4338 74.473C56.1812 74.5261 56.0236 74.3455 55.8376 73.9716Z" fill="#82B3EA"/>
<path d="M56.627 75.5004C56.7629 75.4656 57.0013 75.5884 57.2957 75.9048C57.1443 75.9515 56.9369 75.8048 56.627 75.5004Z" fill="#82B3EA"/>
<path d="M57.4053 76.2182C57.5401 76.1883 57.7709 76.3209 58.06 76.643C57.9127 76.6819 57.7069 76.5314 57.4053 76.2182Z" fill="#82B3EA"/>
<path d="M58.1785 76.9591C58.3168 76.9243 58.5527 77.0503 58.8431 77.3691C58.6904 77.4146 58.4832 77.2673 58.1785 76.9591Z" fill="#82B3EA"/>
<path d="M60.3986 78.8307C60.3125 79.027 60.1713 79.0338 59.8175 79.0415C59.6082 78.9118 59.6115 78.7812 59.6329 78.4547C59.8819 78.3864 60.1126 78.5138 60.3986 78.8307Z" fill="#82B3EA"/>
<path d="M79.0075 110.616C78.153 113.322 77.2985 116.028 76.5514 119.288C76.6412 122.433 74.7527 125.495 78.7673 127.096C79.0401 127.204 78.9101 128.216 78.7091 128.808C78.1064 128.808 77.7619 128.809 77.2117 128.811C76.8691 128.824 76.7323 128.834 76.5955 128.844C76.5955 128.844 76.6466 128.822 76.5614 128.575C73.2138 125.15 69.4499 126.826 65.8057 127.343C65.8057 125.347 65.8057 123.351 65.8057 121.139C63.0373 121.823 60.7998 122.377 58.291 122.932C59.9572 121.947 61.8838 120.941 63.8354 119.98C65.6028 119.109 66.5233 118.107 66.7283 115.895C67.2312 110.469 69.1358 105.482 74.9757 102.595C77.2968 103.938 79.3973 104.928 80.861 106.461C81.2503 106.869 79.6829 108.942 79.0247 110.255C78.9745 110.355 79.0112 110.495 79.0075 110.616Z" fill="#7DA9F9"/>
<path d="M65.6178 127.513C69.4497 126.826 73.2136 125.15 76.544 128.596C72.0015 127.686 67.519 127.561 63.0901 130.331C63.6741 129.469 64.5522 128.576 65.6178 127.513Z" fill="#7CA1E6"/>
<path d="M58.7285 145.803C59.1431 146.42 59.3758 147.217 59.643 148.282C59.3005 147.694 58.9235 146.838 58.7285 145.803Z" fill="#7FA3F7"/>
<path d="M62.6411 130.356C62.8009 130.357 62.7664 130.707 62.7076 130.874C62.4355 130.933 62.2223 130.824 62.009 130.716C62.1665 130.596 62.3239 130.476 62.6411 130.356Z" fill="#7CA1E6"/>
<path d="M60.4766 149.414C60.6299 149.395 60.8533 149.523 61.04 149.84C60.8187 149.901 60.6665 149.745 60.4766 149.414Z" fill="#7FA3F7"/>
<path d="M105.458 90.0216C105.422 85.6082 105.387 81.1949 105.415 76.4446C108.861 76.4789 108.446 73.7929 109.083 72.0274C109.834 69.9489 109.633 67.1999 113.495 67.6751C113.8 73.6415 113.797 79.2689 113.52 84.8017C112.609 82.7044 111.971 80.7016 111.334 78.6988C110.994 78.7293 110.655 78.7599 110.316 78.7904C109.927 81.3444 109.435 83.8891 109.18 86.455C108.956 88.6993 108.205 90.2334 105.458 90.0216Z" fill="#7E97F9"/>
<path d="M113.794 84.8962C113.797 79.2688 113.8 73.6415 113.797 67.6704C113.914 58.9514 114.037 50.576 114.346 41.953C114.534 57.8294 114.536 73.9534 114.504 90.4202C114.47 90.7631 114.155 90.7587 113.988 90.4323C113.812 88.3693 113.803 86.6327 113.794 84.8962Z" fill="#748BE5"/>
<path d="M105.446 70.8451C105.121 70.3205 104.961 69.6447 105.04 68.8813C105.39 69.4271 105.501 70.0604 105.446 70.8451Z" fill="#7E97F9"/>
<path d="M105.405 46.7278C105.11 46.403 104.963 45.957 105.034 45.4393C105.353 45.7807 105.452 46.1936 105.405 46.7278Z" fill="#7E97F9"/>
<path d="M105.423 67.2167C105.129 66.893 104.98 66.4485 105.051 65.9339C105.371 66.2745 105.469 66.6852 105.423 67.2167Z" fill="#7E97F9"/>
<path d="M105.285 57.6456C105.152 57.6129 105.022 57.3877 105.087 57.1152C105.284 57.1964 105.286 57.3247 105.285 57.6456Z" fill="#7E97F9"/>
<path d="M105.285 60.5743C105.151 60.5417 105.021 60.3155 105.086 60.0412C105.284 60.1223 105.286 60.2514 105.285 60.5743Z" fill="#7E97F9"/>
<path d="M113.52 84.8017C113.803 86.6328 113.812 88.3694 113.831 90.4313C113.829 94.1882 113.818 97.6196 113.801 101.392C113.01 103.186 111.95 104.566 111.497 106.106C110.686 108.865 109.879 111.25 105.732 109.796C105.422 109.654 105.394 109.526 105.568 108.95C105.662 104.545 105.555 100.589 105.447 96.6331C105.418 94.6479 105.388 92.6627 105.408 90.3495C108.205 90.2334 108.957 88.6993 109.18 86.4549C109.435 83.8891 109.927 81.3443 110.316 78.7904C110.656 78.7599 110.995 78.7293 111.334 78.6988C111.971 80.7016 112.609 82.7044 113.52 84.8017Z" fill="#8492FB"/>
<path d="M63.0239 89.2273C64.7716 86.9527 66.8339 84.7355 69.0579 82.1154C69.3747 81.3526 69.5298 80.9928 69.685 80.6329C69.685 80.6329 70.0025 80.525 70.4199 80.456C71.2138 79.908 71.5901 79.4291 71.9665 78.9502C73.6849 76.8832 74.5967 74.0545 78.5324 74.5569C81.2887 74.9087 82.0144 76.4579 81.966 78.386C81.8207 84.1779 76.5782 88.9954 70.3181 89.283C67.9971 89.3897 65.6654 89.2902 63.0239 89.2273Z" fill="#7CADF7"/>
<path d="M79.3177 110.567C79.0111 110.495 78.9744 110.355 79.0246 110.255C79.6828 108.942 81.2502 106.869 80.8609 106.461C79.3972 104.928 77.2967 103.938 75.2507 102.574C78.9116 99.1251 83.6359 99.3021 88.2855 99.5971C91.4431 99.7975 93.3283 101.762 93.592 104.699C93.8281 107.329 91.4749 108.803 87.938 109.089C85.1454 109.314 82.3964 110.024 79.3177 110.567Z" fill="#7EA1F7"/>
<path d="M78.9673 128.808C78.9099 128.216 79.0399 127.204 78.7671 127.096C74.7525 125.495 76.641 122.433 76.6664 119.532C77.0406 119.48 77.4071 119.737 78.1951 120.217C79.281 120.538 79.9454 120.637 80.6097 120.737C80.6097 120.737 80.9373 120.8 81.2246 120.961C81.6893 121.285 81.897 121.396 82.1352 121.457C82.1352 121.457 82.0833 121.474 82.1823 121.613C82.4902 121.902 82.6992 122.051 82.9081 122.2C82.9081 122.2 82.8558 122.21 82.9598 122.347C83.2752 122.632 83.4866 122.779 83.698 122.927C83.698 122.927 83.6403 122.928 83.7371 123.067C84.0422 123.358 84.2504 123.511 84.4586 123.664C84.4586 123.664 84.4046 123.669 84.5048 123.808C84.8152 124.097 85.0253 124.247 85.2354 124.396C85.2354 124.396 85.181 124.408 85.1782 124.701C85.119 126.865 85.0627 128.735 85.0063 130.606C85.0063 130.606 84.9555 130.801 84.5129 130.69C82.6012 130.484 81.1322 130.389 79.6632 130.294C79.6632 130.294 79.3242 130.236 79.1513 129.969C78.9747 129.404 78.971 129.106 78.9673 128.808Z" fill="#80A0F9"/>
<path d="M105.387 96.969C105.555 100.589 105.662 104.545 105.611 108.758C105.41 105.111 105.368 101.208 105.387 96.969Z" fill="#878DFB"/>
<path d="M85.2193 130.46C85.0628 128.735 85.1192 126.865 85.1901 124.677C86.6543 126.298 87.287 128.264 85.2193 130.46Z" fill="#8599E1"/>
<path d="M79.6965 130.585C81.1323 130.389 82.6013 130.484 84.4108 130.718C83.0774 130.864 81.4036 130.871 79.6965 130.585Z" fill="#8599E1"/>
<path d="M69.4002 80.5765C69.5299 80.9928 69.3747 81.3526 69.0608 81.8409C68.238 81.8218 67.574 81.6745 66.7256 81.3545C67.3992 80.9613 68.2573 80.7407 69.4002 80.5765Z" fill="#82B3EA"/>
<path d="M63.4521 80.2089C63.0357 80.3829 62.5376 80.3331 61.9897 80.0978C62.4167 79.9365 62.8936 79.9608 63.4521 80.2089Z" fill="#82B3EA"/>
<path d="M71.6857 78.9727C71.59 79.4291 71.2136 79.908 70.5864 80.4311C70.692 79.982 71.0485 79.4886 71.6857 78.9727Z" fill="#82B3EA"/>
<path d="M78.709 128.808C78.971 129.106 78.9747 129.404 78.9852 129.926C78.5193 130.122 78.0466 130.094 77.4921 129.645C77.4126 129.086 77.4149 128.947 77.4173 128.809C77.7618 128.809 78.1062 128.808 78.709 128.808Z" fill="#8599E1"/>
<path d="M80.5003 120.493C79.9456 120.638 79.2812 120.538 78.4124 120.296C78.9354 120.185 79.6631 120.217 80.5003 120.493Z" fill="#8599E1"/>
<path d="M77.2115 128.811C77.415 128.947 77.4126 129.086 77.395 129.431C77.1573 129.497 76.9348 129.356 76.6538 129.03C76.7322 128.834 76.8689 128.824 77.2115 128.811Z" fill="#7CA1E6"/>
<path d="M65.8406 81.0174C65.6701 81.1491 65.4557 81.0386 65.1416 80.7538C65.2659 80.6925 65.5176 80.7578 65.8406 81.0174Z" fill="#82B3EA"/>
<path d="M82.0827 121.253C81.897 121.396 81.6893 121.285 81.387 120.999C81.5182 120.933 81.7742 120.992 82.0827 121.253Z" fill="#8599E1"/>
<path d="M82.8501 122.009C82.6993 122.051 82.4904 121.902 82.1873 121.588C82.326 121.555 82.5589 121.686 82.8501 122.009Z" fill="#8599E1"/>
<path d="M83.6398 122.733C83.4867 122.779 83.2753 122.632 82.9634 122.322C83.1024 122.286 83.3419 122.412 83.6398 122.733Z" fill="#8599E1"/>
<path d="M84.4022 123.471C84.2504 123.511 84.0422 123.358 83.7383 123.039C83.877 123.008 84.1114 123.143 84.4022 123.471Z" fill="#8599E1"/>
<path d="M85.1737 124.206C85.0254 124.247 84.8153 124.097 84.5083 123.783C84.6449 123.751 84.8783 123.883 85.1737 124.206Z" fill="#8599E1"/>
<path d="M77.8132 109.427C77.8309 109.419 77.7955 109.435 77.8132 109.427Z" fill="#7EA1F7"/>
</g>
<defs>
<clipPath id="clip0_105_2">
<rect width="216" height="202" fill="white"/>
</clipPath>
</defs>
</svg>
